<mxfile host="app.diagrams.net" modified="2022-09-02T05:29:43.364Z" agent="5.0 (Macintosh; Intel Mac OS X 10_15_7) AppleWebKit/605.1.15 (KHTML, like Gecko) Version/15.6.1 Safari/605.1.15" etag="Ax325WrdUnBBMfDfbSsJ" version="20.2.7" type="github">
  <diagram id="rxXMl9YyachGZpUbla-E" name="Page-1">
    <mxGraphModel dx="1059" dy="592" grid="1" gridSize="10" guides="1" tooltips="1" connect="1" arrows="1" fold="1" page="1" pageScale="1" pageWidth="827" pageHeight="1169" math="0" shadow="0">
      <root>
        <mxCell id="0" />
        <mxCell id="1" parent="0" />
        <mxCell id="Xi9mwdI8GQyJpGyL4Ejg-1" value="" style="rounded=1;whiteSpace=wrap;html=1;strokeWidth=2;arcSize=40;" vertex="1" parent="1">
          <mxGeometry x="350" y="450" width="120" height="60" as="geometry" />
        </mxCell>
      </root>
    </mxGraphModel>
  </diagram>
</mxfile>
